<svg xmlns="http://www.w3.org/2000/svg" width="116" height="30" viewBox="0 0 116 30"><g transform="translate(-51 -350)"><g transform="translate(51 350)" fill="#0e2742" stroke="#cd9b41" stroke-width="0.5"><rect width="116" height="30" rx="5" stroke="none"/><rect x="0.25" y="0.25" width="115.5" height="29.5" rx="4.75" fill="none"/></g><text transform="translate(88 370)" fill="rgba(255,255,255,0.8)" font-size="14" font-family="Gilroy-Light, Gilroy" font-weight="300" letter-spacing="0.01em"><tspan x="0" y="0">Solicitar</tspan></text><g transform="translate(63.258 331.499)"><path d="M11.468,29.519a3.454,3.454,0,0,0-4.885,0l-.341.341L5.9,29.517a3.451,3.451,0,0,0-4.885-.005A3.451,3.451,0,0,0,1.016,34.4l4.967,4.967a.354.354,0,0,0,.5,0l4.977-4.959a3.46,3.46,0,0,0,.005-4.887ZM10.96,33.9,6.234,38.609,1.519,33.893A2.738,2.738,0,1,1,5.39,30.022l.6.6a.356.356,0,0,0,.505,0l.592-.592A2.74,2.74,0,0,1,10.96,33.9Z" transform="translate(0 0)" fill="#cd9b41"/></g></g></svg>