<svg xmlns="http://www.w3.org/2000/svg" width="16.995" height="16.51" viewBox="0 0 16.995 16.51"><g transform="translate(16.995 -6.85) rotate(90)"><g transform="translate(6.85)"><path d="M175.051,8.283V.478a.478.478,0,1,0-.955,0V8.283a2.426,2.426,0,0,0,0,4.756v3.475a.478.478,0,1,0,.955,0V13.039a2.426,2.426,0,0,0,0-4.756Zm-.478,3.846a1.468,1.468,0,1,1,1.468-1.468A1.469,1.469,0,0,1,174.574,12.13Z" transform="translate(-166.301)" fill="#cd9b41"/><path d="M9.751,4.278V.478a.478.478,0,0,0-.955,0v3.8a2.426,2.426,0,0,0,0,4.756v7.48a.478.478,0,0,0,.955,0V9.03a2.424,2.424,0,0,0,0-4.752ZM9.274,8.124a1.468,1.468,0,1,1,1.468-1.468A1.469,1.469,0,0,1,9.274,8.124Z" transform="translate(-6.85)" fill="#cd9b41"/><path d="M339.351,4.278V.478a.478.478,0,1,0-.955,0v3.8a2.426,2.426,0,0,0,0,4.756v7.484a.478.478,0,1,0,.955,0V9.03a2.424,2.424,0,0,0,0-4.752Zm-.478,3.846a1.468,1.468,0,1,1,1.468-1.468A1.469,1.469,0,0,1,338.874,8.124Z" transform="translate(-324.788)" fill="#cd9b41"/></g></g></svg>