<svg xmlns="http://www.w3.org/2000/svg" width="40" height="40" viewBox="0 0 40 40"><g transform="translate(-36 -40)"><g transform="translate(36 40)" fill="#0b1f35" stroke="#cd9b41" stroke-width="0.5"><rect width="40" height="40" rx="5" stroke="none"/><rect x="0.25" y="0.25" width="39.5" height="39.5" rx="4.75" fill="none"/></g><g transform="translate(48 40.859)"><path d="M17.145,18.591,9,11.309a.228.228,0,0,0-.046-.036.482.482,0,0,0-.651-.011L.161,18.544a.481.481,0,0,0,.641.719L2.268,17.95v8.492a1.211,1.211,0,0,0,1.21,1.21h2.57a1.136,1.136,0,0,0,1.135-1.135V22.2a.175.175,0,0,1,.174-.174H9.952a.175.175,0,0,1,.174.174v4.317a1.136,1.136,0,0,0,1.135,1.135h2.57a1.375,1.375,0,0,0,1.21-1.516V18l1.466,1.313a.484.484,0,0,0,.68-.039A.49.49,0,0,0,17.145,18.591Zm-3.068,2.374v5.164c0,.345-.171.555-.249.555h-2.57a.175.175,0,0,1-.174-.174V22.2a1.136,1.136,0,0,0-1.135-1.135H7.354A1.136,1.136,0,0,0,6.218,22.2v4.317a.175.175,0,0,1-.174.174H3.474a.25.25,0,0,1-.249-.249V17.089l5.4-4.826,5.449,4.872v3.83Z" transform="translate(0)" fill="#cd9b41"/></g></g></svg>