<svg xmlns="http://www.w3.org/2000/svg" width="40" height="40" viewBox="0 0 40 40"><g transform="translate(-298 -40)"><g transform="translate(298 40)" fill="#0b1f35" stroke="#cd9b41" stroke-width="0.5"><rect width="40" height="40" rx="5" stroke="none"/><rect x="0.25" y="0.25" width="39.5" height="39.5" rx="4.75" fill="none"/></g><g transform="translate(274.927 52)"><g transform="translate(36.073)"><path d="M140.686,9.138h.112a3.241,3.241,0,0,0,2.476-1.071c1.352-1.524,1.127-4.137,1.1-4.387A3.583,3.583,0,0,0,142.673.5a3.9,3.9,0,0,0-1.889-.5h-.06a3.911,3.911,0,0,0-1.889.481,3.585,3.585,0,0,0-1.724,3.2c-.025.249-.249,2.862,1.1,4.387A3.228,3.228,0,0,0,140.686,9.138Zm-2.638-5.37c0-.011,0-.021,0-.028.116-2.518,1.9-2.789,2.669-2.789h.042a2.568,2.568,0,0,1,2.669,2.789.068.068,0,0,0,0,.028c0,.025.249,2.413-.867,3.67a2.3,2.3,0,0,1-1.809.752h-.035a2.294,2.294,0,0,1-1.805-.752C137.806,6.188,138.045,3.789,138.048,3.768Z" transform="translate(-133.534)" fill="#cd9b41"/><path d="M50.5,263.612v-.01c0-.028,0-.056,0-.088-.021-.7-.067-2.321-1.591-2.841l-.035-.011a10.133,10.133,0,0,1-2.915-1.328.474.474,0,1,0-.544.776,10.94,10.94,0,0,0,3.206,1.464c.818.292.91,1.166.934,1.967a.7.7,0,0,0,0,.088,6.376,6.376,0,0,1-.074,1.085,12.926,12.926,0,0,1-6.192,1.44,13,13,0,0,1-6.2-1.443,6.036,6.036,0,0,1-.074-1.085c0-.028,0-.056,0-.088.025-.8.116-1.675.934-1.967a11.038,11.038,0,0,0,3.206-1.465.474.474,0,0,0-.544-.776,10.023,10.023,0,0,1-2.915,1.328l-.035.011c-1.524.523-1.57,2.149-1.591,2.841a.7.7,0,0,1,0,.088v.01a5.386,5.386,0,0,0,.179,1.591.451.451,0,0,0,.183.221,13.284,13.284,0,0,0,6.855,1.679,13.324,13.324,0,0,0,6.855-1.679.47.47,0,0,0,.183-.221A5.65,5.65,0,0,0,50.5,263.612Z" transform="translate(-36.073 -250.139)" fill="#cd9b41"/></g></g></g></svg>